<svg width="26" height="26" viewBox="0 0 26 26" fill="none" xmlns="http://www.w3.org/2000/svg">
<path fill-rule="evenodd" clip-rule="evenodd" d="M2.36364 13C2.36364 11.6032 2.63875 10.2201 3.17328 8.92964C3.70781 7.63918 4.49128 6.46663 5.47895 5.47895C6.46663 4.49128 7.63918 3.70781 8.92964 3.17328C10.2201 2.63875 11.6032 2.36364 13 2.36364C14.3968 2.36364 15.7799 2.63875 17.0704 3.17328C18.3608 3.70781 19.5334 4.49128 20.521 5.47895C21.5087 6.46663 22.2922 7.63918 22.8267 8.92964C23.3612 10.2201 23.6364 11.6032 23.6364 13C23.6364 15.8209 22.5157 18.5263 20.521 20.521C18.5263 22.5157 15.8209 23.6364 13 23.6364C10.1791 23.6364 7.47366 22.5157 5.47895 20.521C3.48425 18.5263 2.36364 15.8209 2.36364 13ZM13 0C5.82045 0 0 5.82045 0 13C0 20.1795 5.82045 26 13 26C20.1795 26 26 20.1795 26 13C26 5.82045 20.1795 0 13 0ZM14.1818 7.09091C14.1818 6.77747 14.0573 6.47687 13.8357 6.25524C13.614 6.0336 13.3134 5.90909 13 5.90909C12.6866 5.90909 12.386 6.0336 12.1643 6.25524C11.9427 6.47687 11.8182 6.77747 11.8182 7.09091V11.8182H7.09091C6.77747 11.8182 6.47687 11.9427 6.25524 12.1643C6.0336 12.386 5.90909 12.6866 5.90909 13C5.90909 13.3134 6.0336 13.614 6.25524 13.8357C6.47687 14.0573 6.77747 14.1818 7.09091 14.1818H11.8182V18.9091C11.8182 19.2225 11.9427 19.5231 12.1643 19.7448C12.386 19.9664 12.6866 20.0909 13 20.0909C13.3134 20.0909 13.614 19.9664 13.8357 19.7448C14.0573 19.5231 14.1818 19.2225 14.1818 18.9091V14.1818H18.9091C19.2225 14.1818 19.5231 14.0573 19.7448 13.8357C19.9664 13.614 20.0909 13.3134 20.0909 13C20.0909 12.6866 19.9664 12.386 19.7448 12.1643C19.5231 11.9427 19.2225 11.8182 18.9091 11.8182H14.1818V7.09091Z" fill="#007AFF"/>
</svg>
