<svg width="20" height="20" viewBox="0 0 20 20" fill="none" xmlns="http://www.w3.org/2000/svg">
<path d="M10 10C8.625 10 7.44792 9.51042 6.46875 8.53125C5.48958 7.55208 5 6.375 5 5C5 3.625 5.48958 2.44792 6.46875 1.46875C7.44792 0.489584 8.625 0 10 0C11.375 0 12.5521 0.489584 13.5312 1.46875C14.5104 2.44792 15 3.625 15 5C15 6.375 14.5104 7.55208 13.5312 8.53125C12.5521 9.51042 11.375 10 10 10ZM17.5 20H2.5C1.8125 20 1.22417 19.7554 0.735 19.2663C0.245 18.7763 0 18.1875 0 17.5V16.5C0 15.7917 0.1825 15.1404 0.5475 14.5463C0.911667 13.9529 1.39583 13.5 2 13.1875C3.29167 12.5417 4.60417 12.0571 5.9375 11.7338C7.27083 11.4113 8.625 11.25 10 11.25C11.375 11.25 12.7292 11.4113 14.0625 11.7338C15.3958 12.0571 16.7083 12.5417 18 13.1875C18.6042 13.5 19.0883 13.9529 19.4525 14.5463C19.8175 15.1404 20 15.7917 20 16.5V17.5C20 18.1875 19.7554 18.7763 19.2663 19.2663C18.7763 19.7554 18.1875 20 17.5 20ZM2.5 17.5H17.5V16.5C17.5 16.2708 17.4429 16.0625 17.3288 15.875C17.2138 15.6875 17.0625 15.5417 16.875 15.4375C15.75 14.875 14.6146 14.4529 13.4688 14.1712C12.3229 13.8904 11.1667 13.75 10 13.75C8.83333 13.75 7.67708 13.8904 6.53125 14.1712C5.38542 14.4529 4.25 14.875 3.125 15.4375C2.9375 15.5417 2.78667 15.6875 2.6725 15.875C2.5575 16.0625 2.5 16.2708 2.5 16.5V17.5ZM10 7.5C10.6875 7.5 11.2762 7.255 11.7663 6.765C12.2554 6.27583 12.5 5.6875 12.5 5C12.5 4.3125 12.2554 3.72417 11.7663 3.235C11.2762 2.745 10.6875 2.5 10 2.5C9.3125 2.5 8.72417 2.745 8.235 3.235C7.745 3.72417 7.5 4.3125 7.5 5C7.5 5.6875 7.745 6.27583 8.235 6.765C8.72417 7.255 9.3125 7.5 10 7.5Z" fill="white"/>
</svg>
