<svg width="50" height="50" viewBox="0 0 50 50" fill="none" xmlns="http://www.w3.org/2000/svg">
<circle cx="25" cy="25" r="23.5" stroke="white" stroke-width="3"/>
<path d="M32.9561 15.0645C33.5133 14.6107 34.3316 14.6487 34.8447 15.1748L34.9404 15.2832C35.3577 15.8077 35.3529 16.5602 34.9287 17.0791L34.8311 17.1865L27.0049 25L34.8311 32.8135L34.9287 32.9209C35.3831 33.4767 35.3562 34.3007 34.8447 34.8252C34.3316 35.3513 33.5133 35.3893 32.9561 34.9355L32.8486 34.8389L25 27.002L17.1514 34.8389C16.6314 35.3578 15.8128 35.3848 15.2617 34.9238L15.1553 34.8252C14.6097 34.2658 14.616 33.3656 15.1689 32.8135L22.9941 25L15.1689 17.1865C14.616 16.6344 14.6097 15.7342 15.1553 15.1748L15.2617 15.0762C15.8128 14.6152 16.6314 14.6422 17.1514 15.1611L25 22.9971L32.8486 15.1611L32.9561 15.0645Z" fill="white" stroke="white" stroke-width="0.5" stroke-linecap="round"/>
</svg>
