<svg width="22" height="22" viewBox="0 0 22 22" fill="none" xmlns="http://www.w3.org/2000/svg">
<path fill-rule="evenodd" clip-rule="evenodd" d="M1.37021 0.166626C1.68945 0.166626 1.99562 0.293444 2.22135 0.519183C2.44709 0.744921 2.57391 1.05109 2.57391 1.37033V2.57403H4.98132V1.37033C4.98132 1.05109 5.10814 0.744921 5.33388 0.519183C5.55961 0.293444 5.86578 0.166626 6.18502 0.166626C6.50426 0.166626 6.81043 0.293444 7.03617 0.519183C7.26191 0.744921 7.38873 1.05109 7.38873 1.37033V2.57403H9.79613V1.37033C9.79613 1.05109 9.92295 0.744921 10.1487 0.519183C10.3744 0.293444 10.6806 0.166626 10.9998 0.166626C11.3191 0.166626 11.6252 0.293444 11.851 0.519183C12.0767 0.744921 12.2035 1.05109 12.2035 1.37033V2.57403H14.6109V1.37033C14.6109 1.05109 14.7378 0.744921 14.9635 0.519183C15.1892 0.293444 15.4954 0.166626 15.8147 0.166626C16.1339 0.166626 16.4401 0.293444 16.6658 0.519183C16.8915 0.744921 17.0184 1.05109 17.0184 1.37033V2.57403H19.4258V1.37033C19.4258 1.05109 19.5526 0.744921 19.7783 0.519183C20.0041 0.293444 20.3102 0.166626 20.6295 0.166626C20.9487 0.166626 21.2549 0.293444 21.4806 0.519183C21.7064 0.744921 21.8332 1.05109 21.8332 1.37033V18.2222C21.8332 19.1799 21.4527 20.0984 20.7755 20.7756C20.0983 21.4528 19.1798 21.8333 18.2221 21.8333H3.77761C2.81989 21.8333 1.90139 21.4528 1.22417 20.7756C0.546959 20.0984 0.166504 19.1799 0.166504 18.2222V1.37033C0.166504 1.05109 0.293322 0.744921 0.51906 0.519183C0.744799 0.293444 1.05097 0.166626 1.37021 0.166626ZM19.4258 4.98144H2.57391V18.2222C2.57391 18.5414 2.70073 18.8476 2.92647 19.0733C3.15221 19.2991 3.45837 19.4259 3.77761 19.4259H18.2221C18.5413 19.4259 18.8475 19.2991 19.0732 19.0733C19.2989 18.8476 19.4258 18.5414 19.4258 18.2222V4.98144ZM12.2035 8.59255C12.2035 8.91179 12.0767 9.21796 11.851 9.4437C11.6252 9.66944 11.3191 9.79626 10.9998 9.79626C10.6806 9.79626 10.3744 9.66944 10.1487 9.4437C9.92295 9.21796 9.79613 8.91179 9.79613 8.59255C9.79613 8.27331 9.92295 7.96714 10.1487 7.7414C10.3744 7.51567 10.6806 7.38885 10.9998 7.38885C11.3191 7.38885 11.6252 7.51567 11.851 7.7414C12.0767 7.96714 12.2035 8.27331 12.2035 8.59255ZM15.8147 9.79626C16.1339 9.79626 16.4401 9.66944 16.6658 9.4437C16.8915 9.21796 17.0184 8.91179 17.0184 8.59255C17.0184 8.27331 16.8915 7.96714 16.6658 7.7414C16.4401 7.51567 16.1339 7.38885 15.8147 7.38885C15.4954 7.38885 15.1892 7.51567 14.9635 7.7414C14.7378 7.96714 14.6109 8.27331 14.6109 8.59255C14.6109 8.91179 14.7378 9.21796 14.9635 9.4437C15.1892 9.66944 15.4954 9.79626 15.8147 9.79626ZM7.38873 12.2037C7.38873 12.5229 7.26191 12.8291 7.03617 13.0548C6.81043 13.2805 6.50426 13.4074 6.18502 13.4074C5.86578 13.4074 5.55961 13.2805 5.33388 13.0548C5.10814 12.8291 4.98132 12.5229 4.98132 12.2037C4.98132 11.8844 5.10814 11.5783 5.33388 11.3525C5.55961 11.1268 5.86578 11 6.18502 11C6.50426 11 6.81043 11.1268 7.03617 11.3525C7.26191 11.5783 7.38873 11.8844 7.38873 12.2037ZM10.9998 13.4074C11.3191 13.4074 11.6252 13.2805 11.851 13.0548C12.0767 12.8291 12.2035 12.5229 12.2035 12.2037C12.2035 11.8844 12.0767 11.5783 11.851 11.3525C11.6252 11.1268 11.3191 11 10.9998 11C10.6806 11 10.3744 11.1268 10.1487 11.3525C9.92295 11.5783 9.79613 11.8844 9.79613 12.2037C9.79613 12.5229 9.92295 12.8291 10.1487 13.0548C10.3744 13.2805 10.6806 13.4074 10.9998 13.4074ZM17.0184 12.2037C17.0184 12.5229 16.8915 12.8291 16.6658 13.0548C16.4401 13.2805 16.1339 13.4074 15.8147 13.4074C15.4954 13.4074 15.1892 13.2805 14.9635 13.0548C14.7378 12.8291 14.6109 12.5229 14.6109 12.2037C14.6109 11.8844 14.7378 11.5783 14.9635 11.3525C15.1892 11.1268 15.4954 11 15.8147 11C16.1339 11 16.4401 11.1268 16.6658 11.3525C16.8915 11.5783 17.0184 11.8844 17.0184 12.2037ZM6.18502 17.0185C6.50426 17.0185 6.81043 16.8917 7.03617 16.6659C7.26191 16.4402 7.38873 16.134 7.38873 15.8148C7.38873 15.4955 7.26191 15.1894 7.03617 14.9636C6.81043 14.7379 6.50426 14.6111 6.18502 14.6111C5.86578 14.6111 5.55961 14.7379 5.33388 14.9636C5.10814 15.1894 4.98132 15.4955 4.98132 15.8148C4.98132 16.134 5.10814 16.4402 5.33388 16.6659C5.55961 16.8917 5.86578 17.0185 6.18502 17.0185ZM12.2035 15.8148C12.2035 16.134 12.0767 16.4402 11.851 16.6659C11.6252 16.8917 11.3191 17.0185 10.9998 17.0185C10.6806 17.0185 10.3744 16.8917 10.1487 16.6659C9.92295 16.4402 9.79613 16.134 9.79613 15.8148C9.79613 15.4955 9.92295 15.1894 10.1487 14.9636C10.3744 14.7379 10.6806 14.6111 10.9998 14.6111C11.3191 14.6111 11.6252 14.7379 11.851 14.9636C12.0767 15.1894 12.2035 15.4955 12.2035 15.8148ZM15.8147 17.0185C16.1339 17.0185 16.4401 16.8917 16.6658 16.6659C16.8915 16.4402 17.0184 16.134 17.0184 15.8148C17.0184 15.4955 16.8915 15.1894 16.6658 14.9636C16.4401 14.7379 16.1339 14.6111 15.8147 14.6111C15.4954 14.6111 15.1892 14.7379 14.9635 14.9636C14.7378 15.1894 14.6109 15.4955 14.6109 15.8148C14.6109 16.134 14.7378 16.4402 14.9635 16.6659C15.1892 16.8917 15.4954 17.0185 15.8147 17.0185Z" fill="#007AFF"/>
</svg>
