<svg width="22" height="23" viewBox="0 0 22 23" fill="none" xmlns="http://www.w3.org/2000/svg">
<path fill-rule="evenodd" clip-rule="evenodd" d="M1.37021 0.5C1.68945 0.5 1.99562 0.626818 2.22135 0.852557C2.44709 1.07829 2.57391 1.38446 2.57391 1.7037V2.90741H4.98132V1.7037C4.98132 1.38446 5.10814 1.07829 5.33388 0.852557C5.55961 0.626818 5.86578 0.5 6.18502 0.5C6.50426 0.5 6.81043 0.626818 7.03617 0.852557C7.26191 1.07829 7.38873 1.38446 7.38873 1.7037V2.90741H9.79613V1.7037C9.79613 1.38446 9.92295 1.07829 10.1487 0.852557C10.3744 0.626818 10.6806 0.5 10.9998 0.5C11.3191 0.5 11.6252 0.626818 11.851 0.852557C12.0767 1.07829 12.2035 1.38446 12.2035 1.7037V2.90741H14.6109V1.7037C14.6109 1.38446 14.7378 1.07829 14.9635 0.852557C15.1892 0.626818 15.4954 0.5 15.8147 0.5C16.1339 0.5 16.4401 0.626818 16.6658 0.852557C16.8915 1.07829 17.0184 1.38446 17.0184 1.7037V2.90741H19.4258V1.7037C19.4258 1.38446 19.5526 1.07829 19.7783 0.852557C20.0041 0.626818 20.3102 0.5 20.6295 0.5C20.9487 0.5 21.2549 0.626818 21.4806 0.852557C21.7064 1.07829 21.8332 1.38446 21.8332 1.7037V18.5556C21.8332 19.5133 21.4527 20.4318 20.7755 21.109C20.0983 21.7862 19.1798 22.1667 18.2221 22.1667H3.77761C2.81989 22.1667 1.90139 21.7862 1.22417 21.109C0.546959 20.4318 0.166504 19.5133 0.166504 18.5556V1.7037C0.166504 1.38446 0.293322 1.07829 0.51906 0.852557C0.744799 0.626818 1.05097 0.5 1.37021 0.5ZM12.2035 8.92593C12.2035 9.24517 12.0767 9.55133 11.851 9.77707C11.6252 10.0028 11.3191 10.1296 10.9998 10.1296C10.6806 10.1296 10.3744 10.0028 10.1487 9.77707C9.92295 9.55133 9.79613 9.24517 9.79613 8.92593C9.79613 8.60668 9.92295 8.30052 10.1487 8.07478C10.3744 7.84904 10.6806 7.72222 10.9998 7.72222C11.3191 7.72222 11.6252 7.84904 11.851 8.07478C12.0767 8.30052 12.2035 8.60668 12.2035 8.92593ZM15.8147 10.1296C16.1339 10.1296 16.4401 10.0028 16.6658 9.77707C16.8915 9.55133 17.0184 9.24517 17.0184 8.92593C17.0184 8.60668 16.8915 8.30052 16.6658 8.07478C16.4401 7.84904 16.1339 7.72222 15.8147 7.72222C15.4954 7.72222 15.1892 7.84904 14.9635 8.07478C14.7378 8.30052 14.6109 8.60668 14.6109 8.92593C14.6109 9.24517 14.7378 9.55133 14.9635 9.77707C15.1892 10.0028 15.4954 10.1296 15.8147 10.1296ZM7.38873 12.537C7.38873 12.8563 7.26191 13.1624 7.03617 13.3882C6.81043 13.6139 6.50426 13.7407 6.18502 13.7407C5.86578 13.7407 5.55961 13.6139 5.33388 13.3882C5.10814 13.1624 4.98132 12.8563 4.98132 12.537C4.98132 12.2178 5.10814 11.9116 5.33388 11.6859C5.55961 11.4602 5.86578 11.3333 6.18502 11.3333C6.50426 11.3333 6.81043 11.4602 7.03617 11.6859C7.26191 11.9116 7.38873 12.2178 7.38873 12.537ZM10.9998 13.7407C11.3191 13.7407 11.6252 13.6139 11.851 13.3882C12.0767 13.1624 12.2035 12.8563 12.2035 12.537C12.2035 12.2178 12.0767 11.9116 11.851 11.6859C11.6252 11.4602 11.3191 11.3333 10.9998 11.3333C10.6806 11.3333 10.3744 11.4602 10.1487 11.6859C9.92295 11.9116 9.79613 12.2178 9.79613 12.537C9.79613 12.8563 9.92295 13.1624 10.1487 13.3882C10.3744 13.6139 10.6806 13.7407 10.9998 13.7407ZM17.0184 12.537C17.0184 12.8563 16.8915 13.1624 16.6658 13.3882C16.4401 13.6139 16.1339 13.7407 15.8147 13.7407C15.4954 13.7407 15.1892 13.6139 14.9635 13.3882C14.7378 13.1624 14.6109 12.8563 14.6109 12.537C14.6109 12.2178 14.7378 11.9116 14.9635 11.6859C15.1892 11.4602 15.4954 11.3333 15.8147 11.3333C16.1339 11.3333 16.4401 11.4602 16.6658 11.6859C16.8915 11.9116 17.0184 12.2178 17.0184 12.537ZM6.18502 17.3519C6.50426 17.3519 6.81043 17.225 7.03617 16.9993C7.26191 16.7736 7.38873 16.4674 7.38873 16.1481C7.38873 15.8289 7.26191 15.5227 7.03617 15.297C6.81043 15.0713 6.50426 14.9444 6.18502 14.9444C5.86578 14.9444 5.55961 15.0713 5.33388 15.297C5.10814 15.5227 4.98132 15.8289 4.98132 16.1481C4.98132 16.4674 5.10814 16.7736 5.33388 16.9993C5.55961 17.225 5.86578 17.3519 6.18502 17.3519ZM12.2035 16.1481C12.2035 16.4674 12.0767 16.7736 11.851 16.9993C11.6252 17.225 11.3191 17.3519 10.9998 17.3519C10.6806 17.3519 10.3744 17.225 10.1487 16.9993C9.92295 16.7736 9.79613 16.4674 9.79613 16.1481C9.79613 15.8289 9.92295 15.5227 10.1487 15.297C10.3744 15.0713 10.6806 14.9444 10.9998 14.9444C11.3191 14.9444 11.6252 15.0713 11.851 15.297C12.0767 15.5227 12.2035 15.8289 12.2035 16.1481ZM15.8147 17.3519C16.1339 17.3519 16.4401 17.225 16.6658 16.9993C16.8915 16.7736 17.0184 16.4674 17.0184 16.1481C17.0184 15.8289 16.8915 15.5227 16.6658 15.297C16.4401 15.0713 16.1339 14.9444 15.8147 14.9444C15.4954 14.9444 15.1892 15.0713 14.9635 15.297C14.7378 15.5227 14.6109 15.8289 14.6109 16.1481C14.6109 16.4674 14.7378 16.7736 14.9635 16.9993C15.1892 17.225 15.4954 17.3519 15.8147 17.3519Z" fill="white"/>
</svg>
