<svg width="20" height="20" viewBox="0 0 20 20" fill="none" xmlns="http://www.w3.org/2000/svg">
<path d="M11.8748 20H8.12485C7.87485 20 7.65818 19.9167 7.47485 19.75C7.29152 19.5833 7.18318 19.375 7.14985 19.125L6.84985 16.8C6.63318 16.7167 6.42918 16.6167 6.23785 16.5C6.04585 16.3833 5.85818 16.2583 5.67485 16.125L3.49985 17.025C3.26652 17.1083 3.03318 17.1167 2.79985 17.05C2.56652 16.9833 2.38318 16.8417 2.24985 16.625L0.399849 13.4C0.266516 13.1833 0.224849 12.95 0.274849 12.7C0.324849 12.45 0.449849 12.25 0.649849 12.1L2.52485 10.675C2.50818 10.5583 2.49985 10.4457 2.49985 10.337V9.662C2.49985 9.554 2.50818 9.44167 2.52485 9.325L0.649849 7.9C0.449849 7.75 0.324849 7.55 0.274849 7.3C0.224849 7.05 0.266516 6.81667 0.399849 6.6L2.24985 3.375C2.36652 3.14167 2.54552 2.99567 2.78685 2.937C3.02885 2.879 3.26652 2.89167 3.49985 2.975L5.67485 3.875C5.85818 3.74167 6.04985 3.61667 6.24985 3.5C6.44985 3.38333 6.64985 3.28333 6.84985 3.2L7.14985 0.875C7.18318 0.625 7.29152 0.416667 7.47485 0.25C7.65818 0.0833333 7.87485 0 8.12485 0H11.8748C12.1248 0 12.3415 0.0833333 12.5248 0.25C12.7082 0.416667 12.8165 0.625 12.8498 0.875L13.1498 3.2C13.3665 3.28333 13.5708 3.38333 13.7628 3.5C13.9542 3.61667 14.1415 3.74167 14.3249 3.875L16.4998 2.975C16.7332 2.89167 16.9665 2.88333 17.1999 2.95C17.4332 3.01667 17.6165 3.15833 17.7498 3.375L19.5998 6.6C19.7332 6.81667 19.7748 7.05 19.7248 7.3C19.6749 7.55 19.5499 7.75 19.3498 7.9L17.4748 9.325C17.4915 9.44167 17.4998 9.554 17.4998 9.662V10.337C17.4998 10.4457 17.4832 10.5583 17.4499 10.675L19.3249 12.1C19.5249 12.25 19.6499 12.45 19.6999 12.7C19.7498 12.95 19.7082 13.1833 19.5749 13.4L17.7248 16.6C17.5915 16.8167 17.4042 16.9627 17.1628 17.038C16.9208 17.1127 16.6832 17.1083 16.4499 17.025L14.3249 16.125C14.1415 16.2583 13.9498 16.3833 13.7498 16.5C13.5498 16.6167 13.3498 16.7167 13.1498 16.8L12.8498 19.125C12.8165 19.375 12.7082 19.5833 12.5248 19.75C12.3415 19.9167 12.1248 20 11.8748 20ZM10.0498 13.5C11.0165 13.5 11.8415 13.1583 12.5248 12.475C13.2082 11.7917 13.5498 10.9667 13.5498 10C13.5498 9.03333 13.2082 8.20833 12.5248 7.525C11.8415 6.84167 11.0165 6.5 10.0498 6.5C9.06652 6.5 8.23718 6.84167 7.56185 7.525C6.88718 8.20833 6.54985 9.03333 6.54985 10C6.54985 10.9667 6.88718 11.7917 7.56185 12.475C8.23718 13.1583 9.06652 13.5 10.0498 13.5ZM10.0498 11.5C9.63318 11.5 9.27918 11.354 8.98785 11.062C8.69585 10.7707 8.54985 10.4167 8.54985 10C8.54985 9.58333 8.69585 9.22933 8.98785 8.938C9.27918 8.646 9.63318 8.5 10.0498 8.5C10.4665 8.5 10.8208 8.646 11.1128 8.938C11.4042 9.22933 11.5498 9.58333 11.5498 10C11.5498 10.4167 11.4042 10.7707 11.1128 11.062C10.8208 11.354 10.4665 11.5 10.0498 11.5ZM8.99985 18H10.9748L11.3248 15.35C11.8415 15.2167 12.3208 15.0207 12.7628 14.762C13.2042 14.504 13.6082 14.1917 13.9748 13.825L16.4499 14.85L17.4248 13.15L15.2748 11.525C15.3582 11.2917 15.4165 11.0457 15.4499 10.787C15.4832 10.529 15.4998 10.2667 15.4998 10C15.4998 9.73333 15.4832 9.47067 15.4499 9.212C15.4165 8.954 15.3582 8.70833 15.2748 8.475L17.4248 6.85L16.4499 5.15L13.9748 6.2C13.6082 5.81667 13.2042 5.49567 12.7628 5.237C12.3208 4.979 11.8415 4.78333 11.3248 4.65L10.9998 2H9.02485L8.67485 4.65C8.15818 4.78333 7.67918 4.979 7.23785 5.237C6.79585 5.49567 6.39152 5.80833 6.02485 6.175L3.54985 5.15L2.57485 6.85L4.72485 8.45C4.64152 8.7 4.58318 8.95 4.54985 9.2C4.51652 9.45 4.49985 9.71667 4.49985 10C4.49985 10.2667 4.51652 10.525 4.54985 10.775C4.58318 11.025 4.64152 11.275 4.72485 11.525L2.57485 13.15L3.54985 14.85L6.02485 13.8C6.39152 14.1833 6.79585 14.504 7.23785 14.762C7.67918 15.0207 8.15818 15.2167 8.67485 15.35L8.99985 18Z" fill="#007AFF"/>
</svg>
