<svg width="24" height="17" viewBox="0 0 24 17" fill="none" xmlns="http://www.w3.org/2000/svg">
<path d="M11.9985 1.5C14.2446 1.5 16.4012 2.54908 18.2622 3.94531C20.1129 5.33382 21.5756 6.99463 22.4146 8.0498C22.6304 8.3213 22.6304 8.6787 22.4146 8.9502C21.5756 10.0054 20.1129 11.6662 18.2622 13.0547C16.4012 14.4509 14.2446 15.5 11.9985 15.5C9.75247 15.5 7.5959 14.4509 5.73486 13.0547C3.88413 11.6662 2.42152 10.0054 1.58252 8.9502C1.36665 8.6787 1.36665 8.3213 1.58252 8.0498C2.42152 6.99463 3.88413 5.33382 5.73486 3.94531C7.5959 2.54908 9.75247 1.5 11.9985 1.5Z" stroke="black" stroke-width="2"/>
<circle cx="11.9985" cy="8.5" r="3" stroke="black" stroke-width="2"/>
</svg>
