<svg width="24" height="24" viewBox="0 0 24 24" fill="#007AFF" xmlns="http://www.w3.org/2000/svg">
<g clip-path="url(#clip0_849_2378)">
<path d="M7.2913 20.824L2.00001 22L3.17608 16.709C2.40156 15.2604 1.99754 13.6426 2.00001 12C2.00001 6.477 6.47725 2 12.0006 2C17.5239 2 22.0011 6.477 22.0011 12C22.0011 17.523 17.5239 22 12.0006 22C10.3578 22.0025 8.73999 21.5985 7.2913 20.824ZM7.58131 18.711L8.23435 19.061C9.39296 19.6801 10.6869 20.0027 12.0006 20C13.5829 20 15.1297 19.5308 16.4454 18.6518C17.761 17.7727 18.7865 16.5233 19.392 15.0615C19.9975 13.5997 20.156 11.9911 19.8473 10.4393C19.5386 8.88743 18.7766 7.46197 17.6577 6.34315C16.5388 5.22433 15.1133 4.4624 13.5614 4.15372C12.0094 3.84504 10.4008 4.00346 8.93892 4.60896C7.47703 5.21447 6.22753 6.23984 5.34844 7.55544C4.46934 8.87103 4.00012 10.4177 4.00012 12C4.00012 13.334 4.32514 14.618 4.94017 15.766L5.28919 16.419L4.63415 19.366L7.58131 18.711Z" fill="white"/>
</g>
<defs>
<clipPath id="clip0_849_2378">
<rect width="24.0013" height="24" fill="currentColor"/>
</clipPath>
</defs>
</svg>
